# File created by Blade
# Date/Time:  Tue Jan 27 17:27:44 2015
#---------------------------------------------------------
:version 1.10
:name HOM
:units
  mass 1.0
  length 1.000000
  angle deg
:documentation
     Acclaim Skeleton File
:root
   axis xyz
   order TX TY TZ RX RY RZ
   position 0.000000 0.000000 0.000000
   orientation 0 0 0
:bonedata
   begin
      id 1
      name Spine_dum
      direction 0.000000 1.000000 0.000000
      length 7.539951
      axis 0.0 0.0 0.0 xyz
   end
   begin
      id 2
      name LeftUpLeg_dum
      direction 1.000000 0.000000 0.000000
      length 3.345476
      axis 0.0 0.0 0.0 xyz
   end
   begin
      id 3
      name RightUpLeg_dum
      direction -1.000000 0.000000 0.000000
      length 3.345476
      axis 0.0 0.0 0.0 xyz
   end
   begin
      id 4
      name Spine
      direction 0.000000 1.000000 0.000000
      length 0.000000
      axis 0.0 0.0 0.0 xyz
      dof rx ry rz
   end
   begin
      id 5
      name Spine_dum1
      direction 0.000000 1.000000 0.000000
      length 15.093809
      axis 0.0 0.0 0.0 xyz
   end
   begin
      id 6
      name Spine_dum2
      direction 0.000000 1.000000 0.000000
      length 9.738928
      axis 0.0 0.0 0.0 xyz
   end
   begin
      id 7
      name Spine_dum3
      direction 0.000000 1.000000 0.000000
      length 9.738928
      axis 0.0 0.0 0.0 xyz
   end
   begin
      id 8
      name Head
      direction 0.000000 1.000000 0.000000
      length 4.527550
      axis 0.0 0.0 0.0 xyz
      dof rx ry rz
   end
   begin
      id 9
      name LeftShoulder
      direction 1.000000 0.000000 0.000000
      length 7.084015
      axis 0.0 0.0 -90.0 xyz
      dof rx ry rz
   end
   begin
      id 10
      name LeftArm
      direction 1.000000 0.000000 0.000000
      length 10.259319
      axis 0.0 0.0 -90.0 xyz
      dof rx ry rz
   end
   begin
      id 11
      name LeftForeArm
      direction 1.000000 0.000000 0.000000
      length 9.896984
      axis 0.0 0.0 -90.0 xyz
      dof ry rz rx
   end
   begin
      id 12
      name LeftHand
      direction 0.000000 0.000000 0.000000
      length 0.000000
      axis 0.0 0.0 -90.0 xyz
      dof rx ry rz
   end
   begin
      id 13
      name LeftHand_dum1
      direction 0.000000 0.000000 0.000000
      length 0.000000
      axis 0.0 0.0 -90.0 xyz
   end
   begin
      id 14
      name LeftHand_dum2
      direction 1.000000 0.000000 0.000000
      length 3.937000
      axis 0.0 0.0 -90.0 xyz
   end
   begin
      id 15
      name LeftHandThumb1
      direction 0.000000 0.000000 1.000000
      length 3.937000
      axis 0.0 0.0 -90.0 xyz
      dof rx rz ry
   end
   begin
      id 16
      name RightShoulder
      direction -1.000000 0.000000 0.000000
      length 7.084015
      axis 0.0 0.0 90.0 xyz
      dof rx ry rz
   end
   begin
      id 17
      name RightArm
      direction -1.000000 0.000000 0.000000
      length 10.259319
      axis 0.0 0.0 90.0 xyz
      dof rx ry rz
   end
   begin
      id 18
      name RightForeArm
      direction -1.000000 0.000000 0.000000
      length 9.896984
      axis 0.0 0.0 90.0 xyz
      dof ry rz rx
   end
   begin
      id 19
      name RightHand
      direction 0.000000 0.000000 0.000000
      length 0.000000
      axis 0.0 0.0 90.0 xyz
      dof rx ry rz
   end
   begin
      id 20
      name RightHand_dum1
      direction 0.000000 0.000000 0.000000
      length 0.000000
      axis 0.0 0.0 90.0 xyz
   end
   begin
      id 21
      name RightHand_dum2
      direction -1.000000 0.000000 0.000000
      length 3.937000
      axis 0.0 0.0 90.0 xyz
   end
   begin
      id 22
      name RightHandThumb1
      direction 0.000000 0.000000 1.000000
      length 3.937000
      axis 0.0 0.0 90.0 xyz
      dof rx rz ry
   end
   begin
      id 23
      name LeftUpLeg
      direction 0.000000 -1.000000 0.000000
      length 19.114733
      axis 0.0 0.0 0.0 xyz
      dof rx ry rz
   end
   begin
      id 24
      name LeftLeg
      direction 0.000000 -1.000000 0.000000
      length 16.045604
      axis 0.0 0.0 0.0 xyz
      dof rx ry rz
   end
   begin
      id 25
      name LeftFoot
      direction 0.000000 -0.258819 0.965926
      length 5.543155
      axis 15.0 0.0 0.0 xyz
      dof rx ry rz
   end
   begin
      id 26
      name LeftToeBase
      direction 0.000000 0.000000 1.000000
      length 2.952750
      axis 0.0 0.0 0.0 xyz
      dof rx ry rz
   end
   begin
      id 27
      name RightUpLeg
      direction 0.000000 -1.000000 0.000000
      length 19.114733
      axis 0.0 0.0 0.0 xyz
      dof rx ry rz
   end
   begin
      id 28
      name RightLeg
      direction 0.000000 -1.000000 0.000000
      length 16.045604
      axis 0.0 0.0 0.0 xyz
      dof rx ry rz
   end
   begin
      id 29
      name RightFoot
      direction 0.000000 -0.258819 0.965926
      length 5.543155
      axis 15.0 0.0 0.0 xyz
      dof rx ry rz
   end
   begin
      id 30
      name RightToeBase
      direction 0.000000 0.000000 1.000000
      length 2.952750
      axis 0.0 0.0 0.0 xyz
      dof rx ry rz
   end
:hierarchy
   begin
      root Spine_dum LeftUpLeg_dum RightUpLeg_dum
      Spine_dum Spine
      LeftUpLeg_dum LeftUpLeg
      RightUpLeg_dum RightUpLeg
      Spine Spine_dum1 Spine_dum2 Spine_dum3
      Spine_dum1 Head
      Spine_dum2 LeftShoulder
      Spine_dum3 RightShoulder
      LeftShoulder LeftArm
      LeftArm LeftForeArm
      LeftForeArm LeftHand
      LeftHand LeftHand_dum1 LeftHand_dum2
      LeftHand_dum1 LeftHandThumb1
      RightShoulder RightArm
      RightArm RightForeArm
      RightForeArm RightHand
      RightHand RightHand_dum1 RightHand_dum2
      RightHand_dum1 RightHandThumb1
      LeftUpLeg LeftLeg
      LeftLeg LeftFoot
      LeftFoot LeftToeBase
      RightUpLeg RightLeg
      RightLeg RightFoot
      RightFoot RightToeBase
   end

# File created by Blade
# Date/Time:  Tue Jan 27 17:27:32 2015
# Frame Rate: 120.000 fps
#------------------------------------------------------
:FULLY-SPECIFIED
:DEGREES
334
root 4.451771 36.656784 0.672387 0.132885 -0.100546 0.907164
Spine 3.963953 9.494901 -7.359501
Head 9.526429 -6.305670 6.515728
LeftShoulder -7.337898 -8.504337 10.187000
LeftArm -11.177865 -31.073658 -38.388029
LeftForeArm 2.710005 -0.000000 97.315031
LeftHand -17.411631 -0.000000 26.931370
LeftHandThumb1 -26.253704 0.000000 33.147579
RightShoulder -10.201796 -19.320460 2.253836
RightArm 22.637647 -28.053269 58.490552
RightForeArm 176.117417 0.000000 34.694644
RightHand 1.532379 -0.000000 -1.231789
RightHandThumb1 -24.326973 -0.000000 -32.862282
LeftUpLeg -0.627452 3.231601 -5.421867
LeftLeg 9.319141 -0.000000 -0.000000
LeftFoot -19.313117 5.366726 -13.567344
LeftToeBase 14.642886 -0.000000 -0.000000
RightUpLeg -15.435925 -9.621003 -7.839225
RightLeg 75.997153 -0.000000 -0.000000
RightFoot -4.912736 -3.747801 10.678359
RightToeBase 1.063044 -0.000000 -0.000000
335
root 4.453007 36.656775 0.669037 0.156471 -0.079960 0.894180
Spine 3.915955 9.466764 -7.332449
Head 9.563427 -6.329918 6.480456
LeftShoulder -7.357764 -8.483490 10.186897
LeftArm -11.145077 -30.970406 -38.380102
LeftForeArm 2.679019 0.000000 97.292137
LeftHand -17.392179 0.000000 26.972362
LeftHandThumb1 -26.253704 0.000000 33.147579
RightShoulder -10.158267 -19.328333 2.215033
RightArm 22.603163 -28.053851 58.530245
RightForeArm 176.064308 0.000000 34.582460
RightHand 1.323280 -0.000000 -1.288735
RightHandThumb1 -24.326973 -0.000000 -32.862282
LeftUpLeg -0.672427 3.173599 -5.410883
LeftLeg 9.356776 -0.000000 -0.000000
LeftFoot -19.330223 5.361938 -13.583759
LeftToeBase 14.606877 -0.000000 -0.000000
RightUpLeg -15.474403 -9.569339 -7.830290
RightLeg 75.969039 -0.000000 -0.000000
RightFoot -4.897726 -3.743203 10.727626
RightToeBase 1.077074 -0.000000 -0.000000
336
root 4.454847 36.657359 0.667416 0.152071 -0.072784 0.894889
Spine 3.900559 9.468986 -7.322496
Head 9.601822 -6.310349 6.566265
LeftShoulder -7.350367 -8.486863 10.193765
LeftArm -11.143777 -30.908075 -38.385187
LeftForeArm 2.681265 -0.000000 97.288287
LeftHand -17.384907 -0.000000 26.950466
LeftHandThumb1 -26.253704 0.000000 33.147579
RightShoulder -10.127145 -19.349854 2.202689
RightArm 22.605390 -28.074618 58.526864
RightForeArm 176.073772 0.000000 34.502896
RightHand 1.300923 -0.000000 -1.300506
RightHandThumb1 -24.326973 -0.000000 -32.862282
LeftUpLeg -0.683450 3.126984 -5.413411
LeftLeg 9.382474 -0.000000 -0.000000
LeftFoot -19.328208 5.378862 -13.583704
LeftToeBase 14.569319 -0.000000 -0.000000
RightUpLeg -15.481437 -9.499594 -7.841692
RightLeg 75.933374 -0.000000 -0.000000
RightFoot -4.898516 -3.717197 10.785035
RightToeBase 1.150680 -0.000000 -0.000000
337
root 4.455609 36.658338 0.664625 0.158737 -0.044846 0.881383
Spine 3.877637 9.473374 -7.292732
Head 9.638791 -6.340803 6.557786
LeftShoulder -7.347617 -8.447863 10.186969
LeftArm -11.055313 -30.870130 -38.439976
LeftForeArm 2.701472 -0.000000 97.262899
LeftHand -17.392459 -0.000000 26.968649
LeftHandThumb1 -26.253704 0.000000 33.147579
RightShoulder -10.111747 -19.346479 2.192898
RightArm 22.589388 -28.132662 58.522450
RightForeArm 175.883972 -0.000000 34.413717
RightHand 1.241609 -0.000000 -1.103592
RightHandThumb1 -24.326973 -0.000000 -32.862282
LeftUpLeg -0.715742 3.063131 -5.395633
LeftLeg 9.428605 -0.000000 -0.000000
LeftFoot -19.337323 5.346020 -13.621673
LeftToeBase 14.592385 -0.000000 -0.000000
RightUpLeg -15.498997 -9.439794 -7.837748
RightLeg 75.894081 -0.000000 -0.000000
RightFoot -4.853960 -3.725357 10.729951
RightToeBase 1.032875 -0.000000 -0.000000
338
root 4.457308 36.659007 0.661473 0.180211 -0.016846 0.863592
Spine 3.830630 9.468348 -7.255295
Head 9.697707 -6.389180 6.491258
LeftShoulder -7.353869 -8.422698 10.181201
LeftArm -10.992646 -30.809685 -38.485985
LeftForeArm 2.728629 0.000000 97.244839
LeftHand -17.378073 -0.000000 26.924241
LeftHandThumb1 -26.253704 0.000000 33.147579
RightShoulder -10.081629 -19.356104 2.160192
RightArm 22.549628 -28.142413 58.558557
RightForeArm 175.828411 -0.000000 34.337586
RightHand 1.254258 -0.000000 -1.098786
RightHandThumb1 -24.326973 -0.000000 -32.862282
LeftUpLeg -0.768480 2.997716 -5.376808
LeftLeg 9.485862 -0.000000 -0.000000
LeftFoot -19.357151 5.312906 -13.678378
LeftToeBase 14.626651 -0.000000 -0.000000
RightUpLeg -15.532248 -9.365742 -7.834775
RightLeg 75.852912 -0.000000 -0.000000
RightFoot -4.847919 -3.707201 10.796494
RightToeBase 1.006691 -0.000000 -0.000000
339
root 4.457618 36.660246 0.659151 0.185781 -0.004410 0.851360
Spine 3.804018 9.498154 -7.236670
Head 9.743323 -6.370455 6.613723
LeftShoulder -7.338897 -8.409987 10.198993
LeftArm -10.946566 -30.757106 -38.540395
LeftForeArm 2.776089 -0.000000 97.226191
LeftHand -17.384676 -0.000000 26.912115
LeftHandThumb1 -26.253704 0.000000 33.147579
RightShoulder -10.062857 -19.361994 2.156944
RightArm 22.516586 -28.157904 58.566614
RightForeArm 175.797171 0.000000 34.264273
RightHand 1.236138 -0.000000 -1.109593
RightHandThumb1 -24.326973 -0.000000 -32.862282
LeftUpLeg -0.794662 2.936276 -5.361951
LeftLeg 9.520732 -0.000000 -0.000000
LeftFoot -19.348054 5.314273 -13.664192
LeftToeBase 14.561114 -0.000000 -0.000000
RightUpLeg -15.551174 -9.244362 -7.840411
RightLeg 75.811796 -0.000000 -0.000000
RightFoot -4.843857 -3.672192 10.978933
RightToeBase 1.072903 -0.000000 -0.000000
340
root 4.457825 36.662426 0.656962 0.200937 0.018351 0.813915
Spine 3.768236 9.517862 -7.170143
Head 9.770249 -6.404724 6.595094
LeftShoulder -7.341579 -8.407966 10.183363
LeftArm -10.881031 -30.678245 -38.589422
LeftForeArm 2.801831 -0.000000 97.195249
LeftHand -17.375190 0.000000 26.930969
LeftHandThumb1 -26.253704 0.000000 33.147579
RightShoulder -10.049014 -19.381127 2.147728
RightArm 22.480070 -28.150265 58.568528
RightForeArm 175.801350 0.000000 34.212582
RightHand 1.239960 -0.000000 -1.092676
RightHandThumb1 -24.326973 -0.000000 -32.862282
LeftUpLeg -0.833373 2.851810 -5.322612
LeftLeg 9.565588 -0.000000 -0.000000
LeftFoot -19.360940 5.312045 -13.698598
LeftToeBase 14.525551 -0.000000 -0.000000
RightUpLeg -15.575783 -9.126561 -7.824061
RightLeg 75.758433 -0.000000 -0.000000
RightFoot -4.786572 -3.606984 11.020754
RightToeBase 0.974489 -0.000000 -0.000000
341
root 4.458273 36.664273 0.653675 0.202141 0.057916 0.775990
Spine 3.750630 9.529666 -7.097411
Head 9.825840 -6.433639 6.581355
LeftShoulder -7.316392 -8.389021 10.157585
LeftArm -10.825787 -30.625331 -38.615944
LeftForeArm 2.814211 -0.000000 97.172518
LeftHand -17.431596 -0.000000 26.909281
LeftHandThumb1 -26.253704 0.000000 33.147579
RightShoulder -10.020541 -19.369572 2.100342
RightArm 22.408773 -28.170109 58.619644
RightForeArm 175.959456 -0.000000 34.130703
RightHand 1.154384 -0.000000 -1.055961
RightHandThumb1 -24.326973 -0.000000 -32.862282
LeftUpLeg -0.864096 2.751517 -5.289396
LeftLeg 9.625974 -0.000000 -0.000000
LeftFoot -19.280057 5.373546 -13.438534
LeftToeBase 14.120108 -0.000000 -0.000000
RightUpLeg -15.591293 -8.976870 -7.817616
RightLeg 75.724164 -0.000000 -0.000000
RightFoot -4.752328 -3.550515 11.136822
RightToeBase 1.032037 -0.000000 -0.000000
342
root 4.456626 36.667385 0.652560 0.198116 0.080438 0.719086
Spine 3.735508 9.562004 -7.003311
Head 9.875682 -6.470611 6.553440
LeftShoulder -7.299596 -8.367324 10.133499
LeftArm -10.769595 -30.567566 -38.654992
LeftForeArm 2.835039 -0.000000 97.144744
LeftHand -17.423082 -0.000000 26.915680
LeftHandThumb1 -26.253704 0.000000 33.147579
RightShoulder -9.997477 -19.367405 2.077652
RightArm 22.348804 -28.174060 58.634986
RightForeArm 175.960998 -0.000000 34.079060
RightHand 1.176446 -0.000000 -1.069286
RightHandThumb1 -24.326973 -0.000000 -32.862282
LeftUpLeg -0.883607 2.656710 -5.225872
LeftLeg 9.661546 -0.000000 -0.000000
LeftFoot -19.372685 5.368893 -13.642835
LeftToeBase 14.420680 -0.000000 -0.000000
RightUpLeg -15.596540 -8.762197 -7.793030
RightLeg 75.681722 -0.000000 -0.000000
RightFoot -4.715462 -3.433988 11.288886
RightToeBase 0.970822 -0.000000 -0.000000
